<?xml version="1.0" standalone="no"?>
<!DOCTYPE svg PUBLIC "-//W3C//DTD SVG 20010904//EN"
 "http://www.w3.org/TR/2001/REC-SVG-20010904/DTD/svg10.dtd">
<svg version="1.0" xmlns="http://www.w3.org/2000/svg"
 width="500.000000pt" height="500.000000pt" viewBox="0 0 500.000000 500.000000"
 preserveAspectRatio="xMidYMid meet">
<metadata>
Created by potrace 1.14, written by Peter Selinger 2001-2017
</metadata>
<g transform="translate(0.000000,500.000000) scale(0.100000,-0.100000)"
fill="#000000" stroke="none">
<path d="M2570 4240 c-14 -6 -40 -25 -58 -43 l-32 -31 -68 33 c-133 66 -251
51 -349 -44 -45 -43 -63 -54 -101 -59 -98 -13 -189 -83 -219 -167 l-17 -47
-59 -6 c-158 -16 -292 -155 -305 -314 -4 -55 -8 -66 -31 -80 -109 -67 -161
-195 -131 -321 11 -49 11 -52 -15 -82 -14 -18 -40 -59 -58 -93 -29 -56 -32
-69 -32 -156 0 -83 3 -102 27 -151 15 -30 47 -75 72 -100 l43 -44 -5 -76 c-5
-88 13 -141 71 -206 31 -34 129 -93 155 -93 5 0 14 -24 21 -53 6 -29 23 -69
36 -89 25 -38 112 -88 151 -88 15 0 24 -8 28 -24 13 -51 102 -126 149 -126 11
0 16 -20 19 -77 5 -92 29 -151 82 -208 37 -39 37 -40 22 -71 -34 -72 -29 -152
14 -207 l20 -25 -32 -68 c-30 -64 -31 -70 -20 -121 6 -29 20 -66 31 -82 l21
-29 -27 -48 c-21 -37 -28 -63 -28 -104 0 -100 58 -163 163 -175 72 -8 76 -11
91 -57 27 -82 136 -137 288 -146 176 -9 312 40 359 130 8 15 14 36 14 47 0 16
9 21 58 26 116 14 167 58 179 154 8 66 -3 114 -33 150 -16 20 -21 32 -13 36
22 14 49 91 49 143 0 51 -26 122 -50 137 -7 4 -1 18 14 36 29 34 41 99 33 169
-5 39 1 67 29 147 64 179 126 265 359 503 167 171 231 256 283 375 86 198 117
356 109 558 -14 343 -163 686 -401 924 -175 173 -369 279 -606 328 -96 21
-267 29 -300 15z m340 -104 c318 -82 574 -288 728 -586 57 -108 90 -197 129
-343 25 -93 28 -118 28 -282 0 -167 -2 -187 -28 -279 -39 -142 -101 -277 -168
-365 -31 -42 -116 -134 -189 -206 -196 -193 -298 -338 -354 -503 -19 -55 -27
-66 -42 -62 -28 6 -69 5 -156 -4 l-76 -8 4 98 c23 530 34 641 80 802 28 101
108 269 157 329 l34 42 43 -44 c50 -51 121 -92 176 -101 123 -19 217 129 152
241 -58 99 -222 130 -315 59 -17 -13 -34 -24 -36 -24 -5 0 -27 81 -27 98 0 6
15 13 33 16 49 9 132 61 163 102 21 27 29 50 32 95 4 54 2 60 -26 89 -27 27
-37 30 -92 30 -116 0 -170 -53 -185 -182 -4 -32 -9 -58 -11 -58 -2 0 -26 5
-53 11 l-51 11 15 28 c43 82 36 180 -16 243 -77 94 -216 54 -235 -68 -12 -81
10 -147 67 -205 l32 -31 -34 -29 c-19 -16 -60 -48 -92 -70 l-57 -42 2 592 3
592 29 25 c29 24 34 25 130 21 62 -3 142 -16 206 -32z m-522 -11 l72 -34 0
-386 c0 -377 0 -385 -20 -385 -11 0 -34 13 -52 29 -32 28 -33 32 -38 123 -5
85 -7 93 -26 96 -32 5 -46 -21 -52 -93 -6 -81 15 -141 63 -184 34 -30 34 -30
20 -65 -17 -41 -20 -148 -5 -177 12 -22 42 -25 58 -6 6 7 10 42 10 78 0 61 15
109 34 109 5 0 8 -71 8 -157 l0 -158 -102 0 c-146 -1 -188 -24 -303 -169 -71
-90 -133 -106 -250 -63 l-60 22 3 60 c2 33 -1 72 -7 86 -8 23 -6 30 21 55 54
52 80 131 52 159 -29 28 -64 11 -64 -32 0 -12 -13 -37 -28 -54 l-28 -32 -51
35 c-97 67 -148 73 -148 17 0 -18 10 -29 45 -45 25 -12 64 -42 88 -68 36 -39
42 -52 42 -89 0 -56 -27 -97 -105 -160 -64 -50 -76 -75 -50 -97 14 -12 22 -11
52 5 19 11 55 37 79 58 l44 39 78 -29 c57 -21 95 -28 147 -28 91 0 123 20 217
132 84 101 122 123 218 123 113 0 110 3 110 -112 l0 -99 -26 20 c-41 32 -118
29 -175 -7 -72 -46 -87 -80 -47 -106 13 -8 26 -4 61 21 64 46 90 50 121 19 31
-30 36 -98 10 -135 -15 -20 -22 -23 -59 -17 -47 6 -69 -9 -63 -41 8 -42 92
-56 146 -23 l32 20 0 -104 0 -103 -27 -6 c-47 -9 -80 3 -112 43 -21 26 -46 43
-81 55 -60 20 -100 51 -141 112 -31 45 -53 52 -72 22 -18 -28 2 -70 61 -128
42 -42 69 -61 105 -71 34 -9 56 -23 75 -48 33 -43 76 -62 142 -62 l50 0 0
-134 0 -134 -74 -4 c-64 -3 -81 -8 -118 -34 -58 -40 -98 -120 -105 -208 l-6
-66 -54 0 c-65 0 -95 17 -128 74 -28 48 -49 137 -41 170 3 13 15 26 26 29 11
3 23 12 26 21 11 28 -15 46 -68 46 -60 0 -108 19 -136 55 -27 34 -27 42 -1 50
28 9 59 63 59 103 0 87 -120 209 -144 146 -10 -25 -8 -30 29 -74 60 -72 43
-120 -42 -120 -73 0 -133 63 -133 140 0 138 115 218 270 190 76 -14 90 -9 90
29 0 39 -23 46 -155 46 -83 0 -107 -4 -141 -22 -48 -26 -111 -93 -120 -128 -7
-30 -22 -31 -73 -6 -77 40 -131 133 -116 202 7 29 7 29 61 23 58 -7 84 4 84
37 0 22 -28 39 -64 39 -14 0 -26 2 -26 4 0 3 14 27 31 55 55 88 50 178 -11
211 -51 28 -80 -22 -39 -67 21 -22 21 -24 5 -65 -9 -24 -27 -56 -40 -71 l-23
-28 -36 38 c-83 85 -104 198 -55 303 14 30 34 66 45 79 l20 24 31 -22 c49 -34
121 -63 142 -56 14 4 20 15 20 35 0 23 -6 30 -32 39 -56 20 -107 60 -128 101
-38 74 -21 181 37 243 35 35 45 34 67 -8 26 -48 93 -108 158 -141 70 -36 160
-43 248 -19 101 28 131 29 168 5 55 -34 67 -77 52 -193 -13 -106 -9 -121 31
-115 20 3 27 15 45 83 23 81 41 105 79 105 27 0 45 18 45 47 0 29 -37 40 -81
24 -18 -6 -33 -10 -34 -9 -2 2 -10 19 -20 38 -9 19 -27 45 -38 58 -20 22 -20
23 -3 77 12 39 27 63 52 82 37 30 43 53 19 73 -37 31 -102 -23 -140 -116 -22
-55 -26 -59 -54 -56 -16 2 -59 -6 -96 -17 -130 -40 -224 -25 -310 51 -134 117
-93 337 77 422 67 34 133 34 212 1 45 -18 64 -22 78 -14 31 17 18 51 -29 77
-32 18 -43 30 -43 47 0 33 56 94 105 116 60 28 75 25 75 -14 0 -67 91 -174
129 -150 27 17 24 42 -9 79 -61 70 -60 122 3 181 79 75 160 83 275 28z m419
-804 c13 -19 23 -48 23 -64 0 -31 -36 -117 -48 -117 -14 0 -63 53 -73 77 -14
37 -11 96 7 121 23 33 62 26 91 -17z m384 -71 c54 -29 -22 -133 -115 -156
l-29 -7 6 55 c3 31 11 65 19 77 21 35 82 50 119 31z m-249 -234 c23 -5 28 -14
38 -59 6 -28 17 -65 24 -82 12 -29 10 -33 -41 -100 -100 -132 -172 -310 -208
-519 -19 -109 -32 -289 -41 -558 -6 -194 -8 -208 -26 -214 -11 -3 -22 -4 -24
-1 -3 3 0 272 6 598 10 479 15 597 26 613 22 32 17 72 -12 95 -35 27 -59 26
-89 -4 -29 -28 -32 -56 -9 -91 15 -22 16 -67 10 -457 -3 -237 -9 -505 -12
-594 -6 -151 -8 -163 -25 -163 -18 0 -19 21 -19 684 l0 683 68 45 c37 25 96
70 132 100 l65 54 55 -12 c30 -7 67 -15 82 -18z m366 -146 c70 -32 85 -97 35
-152 -32 -36 -105 -15 -177 53 -25 23 -46 47 -46 53 0 19 82 66 115 66 16 0
49 -9 73 -20z m-879 -1126 l31 -6 0 -134 0 -134 -57 5 c-189 18 -180 12 -162
109 17 94 48 135 118 157 35 10 34 10 70 3z m-254 -321 c123 -24 487 -24 670
0 l130 17 23 -26 c29 -33 30 -89 2 -104 -11 -6 -78 -20 -148 -30 -70 -11 -158
-31 -197 -44 -61 -22 -87 -26 -197 -26 -123 0 -348 23 -394 40 -26 10 -49 78
-40 115 6 23 43 75 54 75 4 0 48 -8 97 -17z m19 -298 c143 -23 307 -29 466
-15 80 7 152 14 160 15 8 2 49 6 90 10 87 8 98 1 107 -64 7 -54 -14 -65 -166
-86 -85 -12 -142 -26 -180 -44 -54 -25 -62 -26 -226 -25 -188 1 -367 24 -396
50 -38 34 -34 108 9 157 18 21 23 21 136 2z m28 -301 c136 -20 467 -15 642 10
101 15 111 15 128 -1 41 -37 38 -141 -6 -167 -27 -17 -148 -33 -342 -46 -190
-13 -416 1 -572 36 -31 6 -56 66 -47 112 7 40 49 86 70 78 8 -3 65 -13 127
-22z"/>
<path d="M2281 3896 c-8 -9 -10 -32 -6 -63 8 -61 -16 -109 -65 -135 -41 -21
-115 -23 -150 -3 -32 18 -45 18 -63 0 -43 -43 30 -90 139 -90 61 0 77 4 120
30 61 38 94 94 95 162 1 27 -2 60 -6 74 -12 39 -43 51 -64 25z"/>
<path d="M1846 3694 c-9 -8 -16 -29 -16 -45 0 -37 -48 -89 -82 -89 -36 1 -70
24 -87 61 -20 43 -56 51 -72 16 -15 -32 11 -89 54 -119 41 -29 132 -36 175
-14 46 24 81 76 89 131 5 40 3 50 -12 61 -24 18 -30 17 -49 -2z"/>
<path d="M1950 2125 c-7 -8 -10 -25 -6 -38 8 -34 72 -104 122 -133 100 -59
289 -32 247 35 -8 13 -28 16 -100 16 -83 0 -92 2 -127 28 -20 16 -48 46 -63
68 -27 41 -52 49 -73 24z"/>
</g>
</svg>
